<svg width="66" height="65" viewBox="0 0 66 65" fill="none" xmlns="http://www.w3.org/2000/svg">
<ellipse cx="32.9277" cy="32.5" rx="32.5" ry="32.5" fill="#E79B70"/>
<g clip-path="url(#clip0)">
<path d="M39.4144 15.2046H26.4429C20.4738 15.2046 15.6333 20.0451 15.6333 26.0141V38.9856C15.6333 44.9547 20.4738 49.7952 26.4429 49.7952H39.4144C45.3834 49.7952 50.2239 44.9547 50.2239 38.9856V26.0141C50.2239 20.0451 45.3834 15.2046 39.4144 15.2046ZM46.9811 38.9856C46.9811 43.1581 43.5869 46.5523 39.4144 46.5523H26.4429C22.2704 46.5523 18.8762 43.1581 18.8762 38.9856V26.0141C18.8762 21.8416 22.2704 18.4474 26.4429 18.4474H39.4144C43.5869 18.4474 46.9811 21.8416 46.9811 26.0141V38.9856Z" fill="#FAFAFA"/>
<path d="M32.9289 23.8522C28.1532 23.8522 24.2812 27.7242 24.2812 32.4999C24.2812 37.2756 28.1532 41.1476 32.9289 41.1476C37.7046 41.1476 41.5766 37.2756 41.5766 32.4999C41.5766 27.7242 37.7046 23.8522 32.9289 23.8522ZM32.9289 37.9047C29.9498 37.9047 27.5241 35.479 27.5241 32.4999C27.5241 29.5186 29.9498 27.0951 32.9289 27.0951C35.908 27.0951 38.3337 29.5186 38.3337 32.4999C38.3337 35.479 35.908 37.9047 32.9289 37.9047Z" fill="#FAFAFA"/>
<path d="M42.2246 24.3559C42.861 24.3559 43.3769 23.84 43.3769 23.2036C43.3769 22.5672 42.861 22.0513 42.2246 22.0513C41.5882 22.0513 41.0723 22.5672 41.0723 23.2036C41.0723 23.84 41.5882 24.3559 42.2246 24.3559Z" fill="#FAFAFA"/>
</g>
<defs>
<clipPath id="clip0">
<rect width="34.5906" height="34.5906" fill="white" transform="translate(15.6333 15.2046)"/>
</clipPath>
</defs>
</svg>
